#!OML:ASF E:\emotionWalksFemale\Project 1\Capture day 1\Session 1\Female1.ASF
:FULLY-SPECIFIED
:DEGREES
1
root 7.43366 15.044 42.2084 177.09 -2.03154 179.958
lowerback 1.04085 1.59312 3.17708
upperback -7.37432 1.48057 -3.77749
thorax -8.15288 0.119135 -5.87692
lowerneck -0.433223 0.982887 -4.33834
upperneck 23.3915 0.0526498 -2.87814
head 7.22699 -1.50121 -0.316867
rclavicle 2.82274e-014 -4.85035e-014
rhumerus -66.581 20.9394 -112.021
rradius 45.0182
rwrist 3.4662
rhand -4.89317 -62.7404
rfingers 7.12502
rthumb -159.104 -88.365
lclavicle 2.82274e-014 -4.85035e-014
lhumerus -55.0154 -13.3112 84.9333
lradius 36.3381
lwrist -19.2053
lhand -1.96599 -17.2479
lfingers 7.12502
lthumb 23.706 11.3101
rfemur -6.81978 5.25936 19.5791
rtibia 31.7919
rfoot -27.3566 -24.7352
rtoes 31.4261
lfemur -5.02157 -19.4868 -28.3322
ltibia 29.1739
lfoot -27.7895 19.2659
ltoes -20.6813
2
root 7.4316 15.0402 42.2009 177.015 -1.83877 180.033
lowerback 1.00283 1.07829 2.8888
upperback -5.28677 1.08454 -3.33017
thorax -5.94012 0.170886 -5.15992
lowerneck -9.29953 0.704864 -5.10115
upperneck 25.7569 0.974038 -2.95508
head 9.67145 -1.08449 -0.175227
rclavicle 1.19271e-014 -1.19271e-014
rhumerus -60.2348 25.9255 -111.001
rradius 42.9356
rwrist 1.12002
rhand -5.02042 -62.5699
rfingers 7.12502
rthumb -159.226 -88.5221
lclavicle 1.19271e-014 -1.19271e-014
lhumerus -49.8621 -9.86812 83.084
lradius 35.6721
lwrist -19.9963
lhand 2.9221 -19.7016
lfingers 7.12502
lthumb 28.3861 8.16611
rfemur -6.8366 5.21872 19.6557
rtibia 31.9601
rfoot -27.0389 -24.9003
rtoes 24.4535
lfemur -4.83739 -19.6541 -28.3375
ltibia 29.0347
lfoot -27.9524 19.318
ltoes -19.2394
3
root 7.43249 15.0412 42.197 177 -1.75253 179.969
lowerback 0.969472 1.02773 2.79697
upperback -5.28262 1.01194 -3.31165
thorax -5.92579 0.139776 -5.08295
lowerneck -9.26662 0.783373 -4.96821
upperneck 25.7778 1.08266 -3.11855
head 9.67332 -1.04693 -0.244171
rclavicle -1.05356e-014 3.89618e-014
rhumerus -59.9698 25.4878 -110.439
rradius 42.8821
rwrist 1.53471
rhand -4.53587 -61.9733
rfingers 7.12502
rthumb -158.761 -89.1703
lclavicle -1.05356e-014 3.89618e-014
lhumerus -49.998 -9.73208 82.7935
lradius 36.0115
lwrist -19.5174
lhand 6.59434 -21.8701
lfingers 7.12502
lthumb 31.8895 5.3579
rfemur -6.82778 5.25066 19.5898
rtibia 32.0268
rfoot -27.1619 -24.8894
rtoes 17.8082
lfemur -4.74426 -19.6005 -28.4134
ltibia 28.9443
lfoot -28.0016 19.33
ltoes -18.9918
4
root 7.43409 15.0432 42.1952 176.991 -1.72329 179.856
lowerback 0.986999 0.960416 2.68242
upperback -5.27028 0.912727 -3.34666
thorax -5.93448 0.0940213 -5.04925
lowerneck -9.00942 0.839725 -5.14662
upperneck 25.5834 1.10948 -2.843
head 9.55057 -1.00969 -0.111778
rclavicle -7.95139e-016 -7.95139e-015
rhumerus -59.6222 25.06 -109.929
rradius 42.7822
rwrist 1.78386
rhand -3.84411 -61.5402
rfingers 7.12502
rthumb -158.096 -89.6796
lclavicle -7.95139e-016 -7.95139e-015
lhumerus -50.1073 -8.76292 82.2603
lradius 36.1768
lwrist -20.1185
lhand 12.0755 -25.3135
lfingers 7.12502
lthumb 37.0921 0.72715
rfemur -6.81022 5.31232 19.4754
rtibia 32.04
rfoot -27.1381 -24.8498
rtoes 2.14552
lfemur -4.69533 -19.4135 -28.5164
ltibia 28.902
lfoot -27.8731 19.3227
ltoes -19.1936
5
root 7.43499 15.0446 42.1908 176.974 -1.57391 179.89
lowerback 0.984413 0.939818 2.70396
upperback -5.25968 0.890932 -3.30442
thorax -5.92426 0.0849394 -5.01536
lowerneck -9.08886 0.957779 -5.10397
upperneck 25.8285 1.26178 -2.91409
head 9.65231 -0.968158 -0.132795
rclavicle 2.5842e-015 4.29375e-014
rhumerus -59.3012 24.7521 -109.421
rradius 42.5131
rwrist 2.25803
rhand -3.2018 -61.1155
rfingers 7.12502
rthumb -157.48 90.1778
lclavicle 2.5842e-015 4.29375e-014
lhumerus -50.2112 -7.70144 81.7952
lradius 36.2373
lwrist -21.1454
lhand 17.862 -28.943
lfingers 7.12502
lthumb 42.5384 -4.53595
rfemur -6.78552 5.44637 19.5267
rtibia 31.9906
rfoot -27.0464 -24.8298
rtoes 2.31464
lfemur -4.63643 -19.357 -28.4933
ltibia 28.9041
lfoot -27.8601 19.3903
ltoes -20.0407
6
root 7.43539 15.0442 42.1834 176.951 -1.38298 180.067
lowerback 0.919932 0.962392 2.8628
upperback -5.23108 0.938706 -3.22117
thorax -5.85082 0.108716 -5.01853
lowerneck -9.05161 1.05954 -5.00691
upperneck 25.902 1.39618 -3.03728
head 9.6717 -0.92171 -0.179897
rclavicle -8.15017e-015 5.56597e-015
rhumerus -59.0075 24.3208 -108.779
rradius 42.3635
rwrist 2.96765
rhand -2.08246 -60.4941
rfingers 7.12502
rthumb -156.406 90.9334
lclavicle -8.15017e-015 5.56597e-015
lhumerus -50.3498 -6.81817 81.4893
lradius 36.4358
lwrist -22.0325
lhand 18.5468 -28.9459
lfingers 7.12502
lthumb 43.179 -4.76349
rfemur -6.7339 5.56838 19.7517
rtibia 31.9023
rfoot -27.023 -24.756
rtoes 1.40981
lfemur -4.5803 -19.3521 -28.3162
ltibia 28.9351
lfoot -28.0515 19.3646
ltoes -21.8013
7
root 7.43654 15.0412 42.1776 176.931 -1.23939 180.163
lowerback 0.875471 0.961491 2.91906
upperback -5.20163 0.947618 -3.1598
thorax -5.79306 0.116358 -4.98468
lowerneck -8.82819 1.09403 -5.18248
upperneck 25.8292 1.40392 -2.86404
head 9.59979 -0.915897 -0.0886077
rclavicle -2.18663e-015 -3.18055e-015
rhumerus -58.9691 24.0718 -108.479
rradius 42.6155
rwrist 2.75021
rhand -1.61772 -60.3398
rfingers 7.12502
rthumb -155.96 91.1459
lclavicle -2.18663e-015 -3.18055e-015
lhumerus -50.4712 -5.90146 80.9894
lradius 36.7621
lwrist -22.0386
lhand 19.6301 -29.1281
lfingers 7.12502
lthumb 44.1903 -5.31657
rfemur -6.67638 5.77638 19.9056
rtibia 31.8278
rfoot -27.0195 -24.7564
rtoes 0.426545
lfemur -4.54419 -19.3448 -28.2211
ltibia 28.954
lfoot -28.2655 19.1842
ltoes -20.2471
8
root 7.43833 15.0389 42.1729 176.912 -1.07784 180.103
lowerback 0.865082 1.03294 2.88941
upperback -5.13312 1.03902 -3.26328
thorax -5.70367 0.164398 -5.08049
lowerneck -9.00974 1.13678 -4.86647
upperneck 26.0681 1.45133 -3.03723
head 9.72245 -0.899649 -0.20133
rclavicle -1.39149e-014 3.81667e-014
rhumerus -58.6819 23.5872 -108.208
rradius 42.7316
rwrist 2.47987
rhand -1.48347 -60.3404
rfingers 7.12502
rthumb -155.831 91.1622
lclavicle -1.39149e-014 3.81667e-014
lhumerus -50.6909 -5.66759 80.6405
lradius 37.1604
lwrist -22.1977
lhand 18.207 -29.2359
lfingers 7.12502
lthumb 42.8612 -4.94112
rfemur -6.64555 5.9855 19.8653
rtibia 31.804
rfoot -27.0772 -24.6948
rtoes 1.2533
lfemur -4.47936 -19.331 -28.3102
ltibia 28.9425
lfoot -28.3881 19.1631
ltoes -14.9825
9
root 7.43821 15.0382 42.1697 176.848 -1.02425 180.013
lowerback 0.93408 0.925914 2.7795
upperback -5.15088 0.894272 -3.20747
thorax -5.77963 0.0969172 -4.95302
lowerneck -8.84528 1.24216 -4.38286
upperneck 25.9382 1.63184 -3.67512
head 9.65381 -0.842764 -0.486121
rclavicle -7.95139e-015 2.78299e-014
rhumerus -58.8112 23.6603 -108.163
rradius 42.8975
rwrist 2.08318
rhand -1.62095 -60.2225
rfingers 7.12502
rthumb -155.963 91.2627
lclavicle -7.95139e-015 2.78299e-014
lhumerus -51.2437 -4.92379 80.3557
lradius 37.6126
lwrist -22.3039
lhand 16.7629 -29.4884
lfingers 7.12502
lthumb 41.5084 -4.73574
rfemur -6.58107 5.97253 19.7633
rtibia 31.8325
rfoot -27.1582 -24.5644
rtoes 2.27407
lfemur -4.3669 -19.2083 -28.4239
ltibia 28.9035
lfoot -28.3206 19.1685
ltoes -17.5182
10
root 7.43922 15.0383 42.1678 176.771 -1.03159 180.018
lowerback 1.05184 0.965986 2.85188
upperback -5.13679 0.943733 -3.34719
thorax -5.82514 0.112223 -5.14714
lowerneck -8.60218 1.20366 -3.86596
upperneck 25.8336 1.5306 -3.96866
head 9.5748 -0.865882 -0.684728
rclavicle -4.37326e-015 2.94201e-014
rhumerus -58.6495 23.0105 -107.94
rradius 43.0562
rwrist 1.74695
rhand -1.60988 -60.1463
rfingers 7.12502
rthumb -155.952 91.3403
lclavicle -4.37326e-015 2.94201e-014
lhumerus -51.4281 -4.78715 79.9701
lradius 37.83
lwrist -22.3177
lhand 15.4196 -30.066
lfingers 7.12502
lthumb 40.2465 -4.91482
rfemur -6.49128 5.94819 19.7823
rtibia 31.8864
rfoot -27.3059 -24.4972
rtoes 2.08862
lfemur -4.25419 -19.0522 -28.4138
ltibia 28.8471
lfoot -28.203 19.1088
ltoes -19.9691
11
root 7.44125 15.0391 42.1649 176.743 -0.965066 180.043
lowerback 1.09682 0.811873 2.75529
upperback -5.21459 0.743994 -3.13873
thorax -5.95764 0.0193241 -4.8626
lowerneck -8.23003 1.38656 -4.47661
upperneck 25.8323 1.75238 -3.7061
head 9.49755 -0.814014 -0.469968
rclavicle -4.17448e-015 -1.98785e-014
rhumerus -59.0181 23.2925 -107.887
rradius 43.2075
rwrist 1.42782
rhand -1.50574 -60.2878
rfingers 7.12502
rthumb -155.853 91.2121
lclavicle -4.17448e-015 -1.98785e-014
lhumerus -51.9964 -3.59475 79.676
lradius 38.107
lwrist -22.3755
lhand 14.3628 -30.4084
lfingers 7.12502
lthumb 39.2516 -4.96092
rfemur -6.45852 6.01808 19.8277
rtibia 31.9368
rfoot -27.4796 -24.4074
rtoes 1.77324
lfemur -4.17598 -18.9831 -28.3859
ltibia 28.797
lfoot -28.1502 19.2051
ltoes -20.4699
